<?xml version="1.0" encoding="UTF-8" standalone="no"?>
<!-- Generator: Adobe Illustrator 16.0.0, SVG Export Plug-In . SVG Version: 6.00 Build 0)  -->

<svg
   version="1.1"
   id="Laag_1"
   x="0px"
   y="0px"
   width="162"
   height="157"
   viewBox="0 0 162 157"
   enable-background="new 0 0 550 400"
   xml:space="preserve"
   sodipodi:docname="recycling-compact.svg"
   inkscape:version="1.2.2 (732a01da63, 2022-12-09)"
   xmlns:inkscape="http://www.inkscape.org/namespaces/inkscape"
   xmlns:sodipodi="http://sodipodi.sourceforge.net/DTD/sodipodi-0.dtd"
   xmlns="http://www.w3.org/2000/svg"
   xmlns:svg="http://www.w3.org/2000/svg"><defs
   id="defs13" /><sodipodi:namedview
   id="namedview11"
   pagecolor="#ffffff"
   bordercolor="#111111"
   borderopacity="1"
   inkscape:showpageshadow="0"
   inkscape:pageopacity="0"
   inkscape:pagecheckerboard="1"
   inkscape:deskcolor="#d1d1d1"
   showgrid="false"
   inkscape:zoom="1.4654788"
   inkscape:cx="261.00685"
   inkscape:cy="212.8997"
   inkscape:window-width="1920"
   inkscape:window-height="1009"
   inkscape:window-x="1912"
   inkscape:window-y="-8"
   inkscape:window-maximized="1"
   inkscape:current-layer="Laag_1" />
<g
   id="g8"
   transform="translate(-192.04946,-123.8374)">
	<g
   id="g6">
		<path
   fill-rule="evenodd"
   clip-rule="evenodd"
   fill="#ffffff"
   d="m 347.15,219.95 c -0.5,0.5 -1.051,1 -1.65,1.5 -3.134,2.767 -6.717,4.1 -10.75,4 l -13,-0.101 13,0.101 c 4.033,0.1 7.616,-1.233 10.75,-4 0.6,-0.5 1.15,-1 1.65,-1.5 l -22.2,35.2 c -0.566,0.866 -1.4,1.733 -2.5,2.6 -2.233,1.733 -4.667,2.583 -7.3,2.55 l -18.7,-0.25 -0.25,14.5 -18.35,-31.9 18.45,-34.15 -0.399,16.65 25.85,0.199 -20.2,-35.149 32.4,-18.7 16.45,28.75 c 0.633,1.366 1.083,2.767 1.35,4.2 0.9,4.666 0,8.95 -2.7,12.85 -0.434,0.8 -1.017,1.617 -1.75,2.45 -0.068,0.066 -0.117,0.134 -0.151,0.2 z M 242.9,129.8 c 3.533,-3.167 7.667,-4.6 12.4,-4.3 l 2.9,0.5 41.95,0.45 3.55,0.8 c 2.633,1 4.6,2.633 5.899,4.9 l 9.5,16.15 12.551,-7.3 -17.801,32.2 -38.8,1.9 14.5,-8.25 -13.1,-22.25 -19.75,35.55 -32.8,-18.05 16.1,-29 c 0.834,-1.2 1.801,-2.3 2.901,-3.3 z m -14.85,94.25 h 40.45 l 0.05,37.45 h -31.4 c -1.833,0.1 -3.867,-0.25 -6.1,-1.05 -4.433,-1.533 -7.667,-4.434 -9.7,-8.7 -0.467,-0.8 -0.867,-1.717 -1.2,-2.75 -0.233,-0.733 -0.433,-1.517 -0.6,-2.35 -0.8,-4.067 -0.167,-7.817 1.9,-11.25 l 6.6,-11.35 -6.6,11.351 c -2.067,3.433 -2.7,7.183 -1.9,11.25 0.167,0.833 0.367,1.616 0.6,2.35 l -19.7,-37.05 c -0.467,-0.934 -0.8,-2.084 -1,-3.45 -0.4,-2.767 0.083,-5.283 1.45,-7.55 l 9.55,-16.1 -12.5,-7.45 h 36.85 l 20.4,33 -14.25,-8.65 z M 258.2,126 l 2.4,0.4 c 3.9,1.3 6.85,3.7 8.85,7.2 l 7,11 -7,-11 c -2,-3.5 -4.95,-5.9 -8.85,-7.2 z"
   id="path2" />
		<path
   fill-rule="evenodd"
   clip-rule="evenodd"
   fill="none"
   stroke="#000000"
   stroke-width="3.25"
   stroke-miterlimit="6"
   d="m 321.75,225.35 -20.2,-35.149 32.4,-18.7 16.45,28.75 c 0.633,1.366 1.083,2.767 1.35,4.2 0.9,4.666 0,8.95 -2.7,12.85 -0.434,0.8 -1.017,1.617 -1.75,2.45 -0.066,0.066 -0.116,0.134 -0.149,0.2 l -22.2,35.2 c -0.566,0.866 -1.4,1.733 -2.5,2.6 -2.233,1.733 -4.667,2.583 -7.3,2.55 l -18.7,-0.25 -0.25,14.5 -18.351,-31.901 18.45,-34.15 -0.399,16.65 z m 25.4,-5.4 c -0.5,0.5 -1.051,1 -1.65,1.5 -3.134,2.767 -6.717,4.1 -10.75,4 l -13,-0.101 M 242.9,129.8 c 3.533,-3.167 7.667,-4.6 12.4,-4.3 l 2.9,0.5 41.95,0.45 3.55,0.8 c 2.633,1 4.6,2.633 5.899,4.9 l 9.5,16.15 12.551,-7.3 -17.801,32.2 -38.8,1.9 14.5,-8.25 -13.1,-22.25 -19.75,35.55 -32.8,-18.05 16.1,-29 c 0.834,-1.2 1.801,-2.3 2.901,-3.3 z m -14.85,94.25 12.9,-22.3 14.25,8.65 -20.4,-33 h -36.85 l 12.5,7.45 -9.55,16.1 c -1.367,2.267 -1.85,4.783 -1.45,7.55 0.2,1.366 0.533,2.517 1,3.45 l 19.7,37.05 c -0.233,-0.733 -0.433,-1.517 -0.6,-2.35 -0.8,-4.067 -0.167,-7.817 1.9,-11.25 l 6.6,-11.35 h 40.45 l 0.05,37.45 h -31.4 c -1.833,0.1 -3.867,-0.25 -6.1,-1.05 -4.433,-1.533 -7.667,-4.434 -9.7,-8.7 -0.467,-0.8 -0.867,-1.717 -1.2,-2.75 m 38.05,-123 2.4,0.4 c 3.9,1.3 6.85,3.7 8.85,7.2 l 7,11"
   id="path4" />
	</g>
</g>
</svg>
